<svg t="1714476060902" class="icon" viewBox="0 0 1024 1024" version="1.1" xmlns="http://www.w3.org/2000/svg" p-id="1764" width="200" height="200"><path d="M539.648 184.064a41.6 41.6 0 0 0-55.296 0l-256 225.024a44.757333 44.757333 0 0 0-15.018667 33.621333v365.056h149.333334v-233.173333c0-48.768 38.186667-88.277333 85.333333-88.277333h128c47.146667 0 85.333333 39.509333 85.333333 88.277333v233.173333H810.666667v-365.056c0-12.970667-5.504-25.258667-15.018667-33.621333l-256-225.024z m-110.506667-67.242667a124.8 124.8 0 0 1 165.76 0l256 225.024A134.229333 134.229333 0 0 1 896 442.709333v365.056C896 856.490667 857.813333 896 810.666667 896h-149.333334c-47.146667 0-85.333333-39.509333-85.333333-88.234667v-233.173333h-128v233.173333c0 48.725333-38.186667 88.234667-85.333333 88.234667H213.333333c-47.146667 0-85.333333-39.509333-85.333333-88.234667v-365.056c0-38.826667 16.469333-75.733333 45.098667-100.864l256-225.024z" fill="#000000" p-id="1765"></path></svg>