<svg t="1714792848391" class="icon" viewBox="0 0 1024 1024" version="1.1" xmlns="http://www.w3.org/2000/svg" p-id="1472" width="200" height="200"><path d="M512 141.653333l96.085333 183.893334a128 128 0 0 0 92.16 66.986666l204.586667 34.517334-145.237333 148.181333a128 128 0 0 0-35.2 108.330667l30.378666 205.226666-185.813333-92.288a128 128 0 0 0-113.92 0L269.226667 888.832l30.378666-205.269333a128 128 0 0 0-35.2-108.330667L119.168 427.093333l204.629333-34.56a128 128 0 0 0 92.16-66.944L512 141.653333z m56.746667-75.733333c-23.936-45.824-89.514667-45.824-113.493334 0L340.352 286.037333a42.666667 42.666667 0 0 1-30.72 22.314667l-244.906667 41.344C13.781333 358.314667-6.485333 420.650667 29.696 457.6l173.824 177.365333a42.666667 42.666667 0 0 1 11.733333 36.096l-36.394666 245.674667c-7.552 51.114667 45.525333 89.685333 91.818666 66.688l222.378667-110.506667a42.666667 42.666667 0 0 1 37.973333 0l222.378667 110.506667c46.336 22.997333 99.370667-15.573333 91.818667-66.688l-36.394667-245.674667a42.666667 42.666667 0 0 1 11.776-36.096l173.781333-177.365333c36.181333-36.949333 15.914667-99.285333-35.072-107.946667l-244.864-41.301333a42.666667 42.666667 0 0 1-30.72-22.314667L568.746667 65.92z" p-id="1473"></path></svg>