<svg t="1714475889847" class="icon" viewBox="0 0 1024 1024" version="1.1" xmlns="http://www.w3.org/2000/svg" p-id="1442" width="200" height="200"><path d="M512 367.189333L443.477333 274.773333A150.4 150.4 0 0 0 322.389333 213.333333C239.616 213.333333 170.666667 281.6 170.666667 368c0 28.032 10.794667 62.037333 36.352 103.04 25.386667 40.789333 61.994667 83.2 105.429333 126.549333 43.264 43.178667 90.666667 84.693333 136.746667 125.013334l4.224 3.669333c19.797333 17.28 39.68 34.688 58.581333 51.754667 18.901333-17.066667 38.826667-34.474667 58.581333-51.754667l4.266667-3.669333c46.08-40.32 93.44-81.834667 136.704-125.013334 43.434667-43.392 80.042667-85.76 105.429333-126.549333 25.557333-41.002667 36.352-75.008 36.352-103.04C853.333333 281.557333 784.426667 213.333333 701.610667 213.333333a150.4 150.4 0 0 0-121.088 61.482667L512 367.189333z m54.954667 476.16c-20.522667 18.602667-39.168 36.181333-54.954667 52.650667-15.786667-16.469333-34.432-34.048-54.954667-52.650667-19.2-17.322667-40.021333-35.541333-61.653333-54.442666C257.578667 668.373333 85.333333 517.845333 85.333333 367.957333 85.333333 235.434667 191.445333 128 322.389333 128a233.813333 233.813333 0 0 1 127.018667 37.333333A239.530667 239.530667 0 0 1 512 224c17.152-23.125333 38.4-43.008 62.592-58.624A233.813333 233.813333 0 0 1 701.610667 128C832.554667 128 938.666667 235.434667 938.666667 368c0 149.888-172.202667 300.373333-310.058667 420.864-21.674667 18.944-42.453333 37.12-61.653333 54.485333z" p-id="1443"></path></svg>