<svg t="1714475516316" class="icon" viewBox="0 0 1024 1024" version="1.1" xmlns="http://www.w3.org/2000/svg" p-id="1034" width="200" height="200"><path d="M797.5 799.75C720.65 876.65 618.45 919 509.75 919c-224.36 0-406.89-182.58-406.89-407s182.53-407 406.89-407c108.68 0 210.86 42.33 287.71 119.2 19.52 19.53 51.18 19.53 70.71 0.01 19.53-19.52 19.53-51.18 0.01-70.71-46.54-46.55-100.74-83.1-161.1-108.64C644.55 18.41 578.16 5 509.75 5c-68.41 0-134.8 13.41-197.32 39.86-60.37 25.54-114.57 62.09-161.1 108.64S68.26 254.26 42.72 314.64C16.27 377.18 2.87 443.58 2.87 512c0 68.42 13.41 134.82 39.85 197.36 25.53 60.38 62.07 114.59 108.61 161.14 46.54 46.55 100.74 83.1 161.1 108.64 62.52 26.45 128.91 39.87 197.32 39.87 68.42 0 134.82-13.42 197.36-39.88 60.38-25.55 114.58-62.11 161.12-108.67 19.52-19.53 19.51-51.19-0.02-70.71-19.53-19.53-51.19-19.53-70.71 0z" p-id="1035"></path><path d="M1008.19 545.56c0.27-0.3 0.53-0.61 0.79-0.91 0.27-0.31 0.54-0.62 0.8-0.93 0.32-0.39 0.62-0.79 0.93-1.18 0.19-0.24 0.38-0.48 0.57-0.73 0.32-0.43 0.63-0.88 0.94-1.32 0.15-0.22 0.31-0.44 0.46-0.66 0.31-0.46 0.6-0.92 0.89-1.38 0.14-0.23 0.29-0.45 0.42-0.68 0.27-0.46 0.54-0.92 0.79-1.38 0.14-0.25 0.29-0.5 0.42-0.76 0.23-0.44 0.46-0.88 0.68-1.32 0.15-0.29 0.3-0.59 0.44-0.89 0.19-0.41 0.37-0.81 0.55-1.22 0.15-0.35 0.31-0.7 0.46-1.05 0.15-0.36 0.29-0.73 0.43-1.1 0.16-0.4 0.31-0.81 0.46-1.22 0.12-0.32 0.22-0.65 0.33-0.98 0.15-0.46 0.3-0.91 0.44-1.38 0.09-0.29 0.17-0.58 0.25-0.87 0.14-0.5 0.28-0.99 0.4-1.5 0.07-0.27 0.13-0.55 0.19-0.82 0.12-0.52 0.24-1.04 0.34-1.56 0.06-0.28 0.1-0.57 0.15-0.85 0.09-0.51 0.18-1.03 0.26-1.54 0.05-0.33 0.08-0.66 0.13-0.99 0.06-0.47 0.12-0.95 0.17-1.42 0.04-0.44 0.07-0.89 0.1-1.33 0.03-0.37 0.06-0.73 0.08-1.11 0.08-1.65 0.08-3.31 0-4.96-0.02-0.37-0.05-0.74-0.08-1.11-0.03-0.44-0.06-0.89-0.1-1.33-0.05-0.48-0.11-0.95-0.17-1.42-0.04-0.33-0.08-0.66-0.13-0.99-0.08-0.52-0.17-1.03-0.26-1.54l-0.15-0.85c-0.1-0.52-0.22-1.04-0.34-1.56-0.06-0.27-0.12-0.55-0.19-0.82-0.12-0.5-0.26-1-0.4-1.5-0.08-0.29-0.16-0.58-0.25-0.87-0.14-0.46-0.29-0.92-0.44-1.38-0.11-0.33-0.21-0.65-0.33-0.98-0.15-0.41-0.3-0.81-0.46-1.22-0.14-0.37-0.28-0.74-0.43-1.1-0.15-0.35-0.3-0.7-0.46-1.05-0.18-0.41-0.36-0.82-0.55-1.22-0.14-0.3-0.29-0.59-0.44-0.89-0.22-0.44-0.44-0.89-0.68-1.32-0.14-0.25-0.28-0.5-0.42-0.76-0.26-0.46-0.52-0.92-0.79-1.38-0.14-0.23-0.28-0.45-0.42-0.68-0.29-0.46-0.58-0.93-0.89-1.38-0.15-0.22-0.31-0.44-0.46-0.66-0.31-0.44-0.61-0.88-0.94-1.32-0.18-0.25-0.38-0.49-0.57-0.73-0.31-0.4-0.61-0.79-0.93-1.18-0.26-0.32-0.53-0.62-0.8-0.93-0.26-0.31-0.52-0.61-0.79-0.91-0.53-0.58-1.07-1.15-1.62-1.7-0.03-0.03-0.05-0.06-0.08-0.09L794.36 264.51c-19.53-19.53-51.18-19.53-70.71 0-19.53 19.53-19.53 51.18 0 70.71L850.42 462H431.13c-27.61 0-50 22.39-50 50s22.39 50 50 50h419.29L723.65 688.78c-19.53 19.53-19.53 51.18 0 70.71 9.76 9.76 22.56 14.64 35.36 14.64s25.59-4.88 35.36-14.64l212.13-212.13c0.03-0.03 0.05-0.06 0.08-0.09 0.55-0.56 1.09-1.12 1.61-1.71z" p-id="1036"></path></svg>