<svg t="1714899655935" class="icon" viewBox="0 0 1024 1024" version="1.1" xmlns="http://www.w3.org/2000/svg" p-id="1502" width="200" height="200"><path d="M386.944 854.016a176.384 176.384 0 1 1-212.864-209.856V384.512H51.904V59.072h325.632v118.016h257.728A176.448 176.448 0 0 1 802.56 32.128h6.4a176.256 176.256 0 0 1 42.56 347.392v273.6h120.32v325.44h-325.632v-124.48H387.072z m-171.968-132.928a94.912 94.912 0 1 0 94.976 94.912 94.976 94.976 0 0 0-94.976-94.912z m675.648 13.504h-162.816v162.752h162.816z m-250.56-475.968h-262.4v126.144H255.616v259.52a176.576 176.576 0 0 1 130.304 128.384h260.288v-119.616h123.968V380.288a176.64 176.64 0 0 1-130.24-121.6z m169.152-145.088a94.912 94.912 0 1 0 94.976 94.912 94.976 94.976 0 0 0-94.976-94.912z m-512.768 27.136H133.632V303.36h162.816z" fill-opacity="0.5" p-id="1503"></path></svg>